<?xml version="1.0" standalone="no"?>
<!DOCTYPE svg PUBLIC "-//W3C//DTD SVG 20010904//EN"
 "http://www.w3.org/TR/2001/REC-SVG-20010904/DTD/svg10.dtd">
<svg version="1.0" xmlns="http://www.w3.org/2000/svg"
 width="260.000000pt" height="260.000000pt" viewBox="0 0 260.000000 260.000000"
 preserveAspectRatio="xMidYMid meet">
<metadata>
Created by potrace 1.11, written by Peter Selinger 2001-2013
</metadata>
<g transform="translate(0.000000,260.000000) scale(0.100000,-0.100000)"
fill="#000000" stroke="none">
<path d="M0 1300 l0 -1300 1300 0 1300 0 0 1300 0 1300 -1300 0 -1300 0 0
-1300z m1158 944 c101 -50 162 -151 170 -278 l5 -79 19 36 c22 43 35 47 44 12
3 -14 10 -25 15 -25 5 0 9 -7 9 -15 0 -13 4 -14 21 -5 11 7 24 9 27 5 4 -4 7
-52 6 -108 -1 -83 -9 -132 -42 -267 -22 -90 -39 -166 -38 -168 6 -5 112 212
150 306 20 51 34 97 31 102 -3 6 -1 10 5 10 6 0 9 4 6 9 -7 11 23 101 34 101
5 0 11 -9 15 -19 8 -26 31 -33 45 -15 19 22 28 17 41 -21 7 -19 16 -35 20 -35
14 0 40 -137 59 -317 11 -103 27 -231 35 -283 9 -52 15 -107 15 -122 0 -16 4
-28 9 -28 7 0 27 44 36 80 1 3 20 45 43 93 23 49 42 92 42 97 0 4 12 34 26 66
55 123 167 471 158 486 -3 4 0 8 7 8 6 0 9 8 6 19 -2 10 0 25 5 32 8 11 9 10
4 -3 -10 -32 3 -19 19 19 9 20 13 43 11 50 -3 7 -1 15 3 17 4 3 27 59 50 125
23 66 49 125 57 132 19 15 19 -1 -1 -48 -17 -41 -19 -96 -5 -123 6 -11 7 -28
1 -42 -5 -13 -5 -49 -1 -81 7 -48 5 -69 -14 -125 -13 -37 -40 -137 -61 -222
-73 -300 -121 -471 -170 -595 -15 -38 -30 -86 -34 -105 -9 -44 -110 -311 -122
-324 -5 -6 -9 -22 -9 -37 0 -15 -4 -31 -10 -34 -5 -3 -10 -1 -10 5 0 7 -7 9
-15 6 -10 -3 -15 -1 -14 7 4 22 -12 97 -21 97 -5 0 -13 -6 -17 -13 -4 -8 -20
-17 -34 -20 -25 -6 -27 -4 -44 56 -10 34 -20 78 -22 97 -2 19 -10 55 -18 80
-37 113 -72 289 -69 346 2 38 0 54 -6 44 -14 -23 -21 -7 -30 65 -5 37 -10 69
-13 71 -2 2 -14 -24 -27 -58 -19 -52 -106 -240 -138 -298 -5 -8 -25 -49 -45
-90 -47 -97 -95 -162 -116 -158 -9 2 -20 -5 -26 -16 -5 -11 -16 -21 -23 -24
-9 -3 -10 3 -2 23 16 42 12 79 -10 92 -16 10 -18 10 -14 -1 4 -9 -3 -13 -21
-14 -14 0 -27 3 -29 7 -4 6 8 121 18 171 2 14 9 66 15 115 17 136 22 165 29
161 4 -2 8 19 9 47 3 91 5 102 11 107 20 15 29 47 20 65 -8 13 -8 16 2 10 9
-6 10 0 5 25 -6 25 -4 31 6 25 9 -6 11 -3 6 9 -4 10 0 47 8 82 8 36 15 68 15
71 0 4 -14 -15 -32 -41 -17 -26 -58 -70 -90 -97 -62 -52 -98 -66 -58 -24 13
14 20 25 16 25 -5 0 -1 11 8 25 19 29 20 39 5 29 -7 -4 -2 12 11 34 30 53 20
64 -19 23 -16 -17 -34 -31 -39 -31 -6 0 -14 -9 -17 -20 -6 -19 -7 -19 -29 -3
l-23 17 39 82 c21 45 38 88 38 95 0 11 3 11 10 -1 8 -11 9 -9 5 10 -3 14 -7
52 -9 85 -2 33 -5 64 -5 68 -1 5 -5 5 -11 2 -5 -3 -10 -1 -10 5 0 5 -14 24
-30 42 l-31 31 -52 -16 c-134 -42 -247 -155 -247 -248 0 -76 67 -210 176 -354
137 -180 172 -253 189 -386 21 -171 -94 -379 -255 -457 -202 -99 -382 -40
-490 159 -43 79 -53 102 -40 94 13 -8 13 1 0 25 -9 17 -7 19 24 17 31 -2 41
-11 84 -72 44 -62 82 -102 149 -156 17 -14 33 -16 92 -9 75 8 128 37 152 83 7
12 23 35 36 51 13 15 30 42 37 60 26 63 30 236 5 220 -5 -3 -6 1 -3 9 11 31
-94 217 -169 298 -110 118 -151 193 -172 311 -14 82 -14 88 9 179 25 102 36
127 78 174 16 16 28 32 28 35 0 3 21 22 48 42 155 118 360 167 470 112z m993
-355 c-9 -22 -10 -22 -10 -3 -1 11 2 24 6 27 12 12 14 0 4 -24z m-587 -104
c-4 -8 -8 -15 -10 -15 -2 0 -4 7 -4 15 0 8 4 15 10 15 5 0 7 -7 4 -15z m-541
-80 c-3 -9 -8 -14 -10 -11 -3 3 -2 9 2 15 9 16 15 13 8 -4z m83 -98 c-2 -7 -5
-4 -5 6 -1 10 -5 15 -11 12 -6 -4 -7 1 -3 11 6 15 7 15 15 0 5 -9 7 -22 4 -29z
m-46 -371 c0 -26 -6 -18 -14 19 -5 22 -4 26 4 15 5 -8 10 -24 10 -34z m15 -35
c3 -5 1 -12 -5 -16 -5 -3 -10 1 -10 9 0 18 6 21 15 7z m-218 -253 c-3 -8 -6
-5 -6 6 -1 11 2 17 5 13 3 -3 4 -12 1 -19z m270 -60 c-3 -7 -5 -2 -5 12 0 14
2 19 5 13 2 -7 2 -19 0 -25z m-302 -38 c-9 -16 -18 -30 -21 -30 -2 0 2 14 11
30 9 17 18 30 21 30 2 0 -2 -13 -11 -30z m-555 0 c0 -5 -2 -10 -4 -10 -3 0 -8
5 -11 10 -3 6 -1 10 4 10 6 0 11 -4 11 -10z m20 -53 c0 -5 -4 -5 -10 -2 -5 3
-10 14 -10 23 0 15 2 15 10 2 5 -8 10 -19 10 -23z m1444 -133 c3 -8 2 -12 -4
-9 -6 3 -10 10 -10 16 0 14 7 11 14 -7z"/>
<path d="M1111 1884 c0 -11 3 -14 6 -6 3 7 2 16 -1 19 -3 4 -6 -2 -5 -13z"/>
<path d="M1301 1774 c0 -11 3 -14 6 -6 3 7 2 16 -1 19 -3 4 -6 -2 -5 -13z"/>
<path d="M1610 1260 c0 -5 5 -10 10 -10 6 0 10 5 10 10 0 6 -4 10 -10 10 -5 0
-10 -4 -10 -10z"/>
<path d="M1185 879 c-4 -6 -5 -12 -2 -15 2 -3 7 2 10 11 7 17 1 20 -8 4z"/>
<path d="M509 681 c13 -12 28 -21 34 -21 12 0 11 0 -28 24 l-30 17 24 -20z"/>
<path d="M1796 675 c-3 -8 -1 -15 4 -15 6 0 10 7 10 15 0 8 -2 15 -4 15 -2 0
-6 -7 -10 -15z"/>
</g>
</svg>
